<?xml version="1.0" encoding="UTF-8"?>
<!DOCTYPE svg PUBLIC "-//W3C//DTD SVG 1.1//EN" "http://www.w3.org/Graphics/SVG/1.1/DTD/svg11.dtd">
<svg xmlns="http://www.w3.org/2000/svg" version="1.1" width="889px" height="280px" style="shape-rendering:geometricPrecision; text-rendering:geometricPrecision; image-rendering:optimizeQuality; fill-rule:evenodd; clip-rule:evenodd" xmlns:xlink="http://www.w3.org/1999/xlink">
<g><path style="opacity:1" fill="#e0367f" d="M 84.5,85.5 C 73.1931,86.5767 61.8598,86.7433 50.5,86C 50.9574,85.586 51.2907,85.086 51.5,84.5C 49.8333,83.8333 48.1667,83.1667 46.5,82.5C 47.5384,79.2124 46.8718,78.8791 44.5,81.5C 43.914,81.2907 43.414,80.9574 43,80.5C 42.3333,68.8333 42.3333,57.1667 43,45.5C 45.0396,43.6298 46.8729,41.6298 48.5,39.5C 59.3255,38.341 70.3255,38.1743 81.5,39C 86.6444,41.1211 89.4777,44.9544 90,50.5C 90.8697,60.8845 90.5364,71.2179 89,81.5C 87.9513,83.3844 86.4513,84.7177 84.5,85.5 Z"/></g>
<g><path style="opacity:1" fill="#e1377f" d="M 167.5,47.5 C 166.505,58.3206 166.172,69.3206 166.5,80.5C 166.262,82.4044 165.262,83.7377 163.5,84.5C 161.897,84.3118 160.563,84.8118 159.5,86C 148.172,86.4999 136.838,86.6665 125.5,86.5C 121.847,85.0106 119.347,82.3439 118,78.5C 117.333,68.5 117.333,58.5 118,48.5C 119.105,43.7938 121.938,40.6271 126.5,39C 137.5,38.3333 148.5,38.3333 159.5,39C 163.393,40.7591 166.06,43.5924 167.5,47.5 Z"/></g>
<g><path style="opacity:1" fill="#e2357e" d="M 203.5,86.5 C 199.416,84.9084 196.916,81.9084 196,77.5C 195.831,72.1717 195.998,66.8384 196.5,61.5C 197.947,60.8658 198.613,59.6991 198.5,58C 196.065,51.3586 197.731,46.0253 203.5,42C 214.109,40.2382 224.776,40.0716 235.5,41.5C 237.917,42.0722 240.084,43.0722 242,44.5C 243.82,57.1466 243.82,69.8133 242,82.5C 239.182,83.3727 236.682,84.706 234.5,86.5C 224.156,87.7338 213.823,87.7338 203.5,86.5 Z"/></g>
<g><path style="opacity:0.97" fill="#d34980" d="M 203.5,86.5 C 213.823,87.7338 224.156,87.7338 234.5,86.5C 236.682,84.706 239.182,83.3727 242,82.5C 243.82,69.8133 243.82,57.1466 242,44.5C 240.084,43.0722 237.917,42.0722 235.5,41.5C 224.776,40.0716 214.109,40.2382 203.5,42C 197.731,46.0253 196.065,51.3586 198.5,58C 198.613,59.6991 197.947,60.8658 196.5,61.5C 196.334,56.1563 196.501,50.8229 197,45.5C 198.563,42.2716 201.063,40.1049 204.5,39C 215.5,38.3333 226.5,38.3333 237.5,39C 240.667,40.8333 243.167,43.3333 245,46.5C 245.667,57.8333 245.667,69.1667 245,80.5C 243.01,84.4905 239.843,86.9905 235.5,88C 225.833,88.6667 216.167,88.6667 206.5,88C 205.263,87.7679 204.263,87.2679 203.5,86.5 Z"/></g>
<g><path style="opacity:0.525" fill="#c65286" d="M 167.5,47.5 C 168.588,57.1324 168.755,66.7991 168,76.5C 167.79,78.0581 167.29,79.3915 166.5,80.5C 166.172,69.3206 166.505,58.3206 167.5,47.5 Z"/></g>
<g><path style="opacity:1" fill="#d24982" d="M 48.5,39.5 C 46.8729,41.6298 45.0396,43.6298 43,45.5C 42.3333,57.1667 42.3333,68.8333 43,80.5C 43.414,80.9574 43.914,81.2907 44.5,81.5C 46.8718,78.8791 47.5384,79.2124 46.5,82.5C 48.1667,83.1667 49.8333,83.8333 51.5,84.5C 51.2907,85.086 50.9574,85.586 50.5,86C 61.8598,86.7433 73.1931,86.5767 84.5,85.5C 83.158,86.793 81.4913,87.6264 79.5,88C 69.8333,88.6667 60.1667,88.6667 50.5,88C 45.7647,86.9319 42.5981,84.0986 41,79.5C 40.3333,68.5 40.3333,57.5 41,46.5C 42.7364,43.2608 45.2364,40.9274 48.5,39.5 Z"/></g>
<g><path style="opacity:0.694" fill="#d25386" d="M 163.5,84.5 C 162.025,86.4095 160.025,87.5762 157.5,88C 147.833,88.6667 138.167,88.6667 128.5,88C 127.263,87.7679 126.263,87.2679 125.5,86.5C 136.838,86.6665 148.172,86.4999 159.5,86C 160.563,84.8118 161.897,84.3118 163.5,84.5 Z"/></g>
<g><path style="opacity:1" fill="#302865" d="M 401.5,85.5 C 413.161,85.7209 416.994,91.3875 413,102.5C 410.526,105.275 407.36,106.608 403.5,106.5C 400.243,106.582 397.409,105.582 395,103.5C 392.613,97.828 393.113,92.4946 396.5,87.5C 398.336,86.9724 400.003,86.3058 401.5,85.5 Z"/></g>
<g><path style="opacity:1" fill="#2f286a" d="M 319.5,90.5 C 341.503,90.3334 363.503,90.5 385.5,91C 388.334,92.7924 389.668,95.4591 389.5,99C 389.592,101.814 388.592,104.147 386.5,106C 377.942,107.441 369.276,107.941 360.5,107.5C 358.676,126.14 357.843,145.14 358,164.5C 357.626,165.416 357.126,166.25 356.5,167C 352.129,167.828 347.795,167.661 343.5,166.5C 342.371,147.169 342.205,127.836 343,108.5C 342.5,108 342,107.5 341.5,107C 332.758,106.911 324.091,106.244 315.5,105C 313.875,104.147 313.542,103.147 314.5,102C 311.735,99.0337 312.068,96.367 315.5,94C 317.134,93.5065 318.801,93.3398 320.5,93.5C 320.343,94.8734 320.51,96.2068 321,97.5C 321.199,95.5975 322.033,94.0975 323.5,93C 321.167,92.6667 318.833,92.3333 316.5,92C 317.737,91.7679 318.737,91.2679 319.5,90.5 Z"/></g>
<g><path style="opacity:1" fill="#de377d" d="M 735.5,111.5 C 749.539,109.438 760.039,114.438 767,126.5C 769.889,134.131 768.722,140.964 763.5,147C 753.265,148.286 742.932,148.952 732.5,149C 734.916,152.708 738.416,154.541 743,154.5C 747.706,154.294 752.539,153.294 757.5,151.5C 763.898,153.958 766.398,158.624 765,165.5C 763.457,167.378 761.624,168.878 759.5,170C 746.723,174.064 734.39,173.064 722.5,167C 709.724,155.056 707.224,141.223 715,125.5C 720.117,118.199 726.951,113.533 735.5,111.5 Z M 740.5,129.5 C 746.372,129.191 748.705,131.691 747.5,137C 742.467,137.829 737.467,137.662 732.5,136.5C 734.406,133.226 737.072,130.893 740.5,129.5 Z"/></g>
<g><path style="opacity:1" fill="#de377d" d="M 673.5,111.5 C 687.549,109.444 698.049,114.444 705,126.5C 707.636,133.534 706.803,140.034 702.5,146C 701.167,146.667 699.833,147.333 698.5,148C 689.167,148.333 679.833,148.667 670.5,149C 672.916,152.708 676.416,154.541 681,154.5C 685.706,154.294 690.539,153.294 695.5,151.5C 702.387,154.278 704.721,159.278 702.5,166.5C 700.972,167.861 699.305,169.028 697.5,170C 684.723,174.064 672.39,173.064 660.5,167C 647.724,155.056 645.224,141.223 653,125.5C 658.117,118.199 664.951,113.533 673.5,111.5 Z M 678.5,129.5 C 684.372,129.191 686.705,131.691 685.5,137C 680.467,137.829 675.467,137.662 670.5,136.5C 672.406,133.226 675.072,130.893 678.5,129.5 Z"/></g>
<g><path style="opacity:0.663" fill="#d64b82" d="M 244.5,157.5 C 244.666,147.161 244.5,136.828 244,126.5C 243.953,132.341 243.286,138.008 242,143.5C 241.501,138.177 241.334,132.844 241.5,127.5C 240.325,127.719 239.325,127.386 238.5,126.5C 239.689,125.571 241.022,125.238 242.5,125.5C 242.452,122.365 240.785,120.698 237.5,120.5C 237.709,119.914 238.043,119.414 238.5,119C 235.723,118.358 233.056,117.524 230.5,116.5C 221.144,117.106 211.811,117.94 202.5,119C 201.333,120.167 200.167,121.333 199,122.5C 198.667,129.5 198.333,136.5 198,143.5C 197.768,144.737 197.268,145.737 196.5,146.5C 196.334,138.826 196.5,131.159 197,123.5C 198.99,119.51 202.157,117.01 206.5,116C 216.167,115.333 225.833,115.333 235.5,116C 240.206,117.105 243.373,119.938 245,124.5C 245.826,135.674 245.659,146.674 244.5,157.5 Z"/></g>
<g><path style="opacity:1" fill="#302869" d="M 426.5,112.5 C 429.518,112.335 432.518,112.502 435.5,113C 438.057,113.685 439.891,115.185 441,117.5C 452.498,110.442 462.832,112.108 472,122.5C 483.531,141.57 479.698,156.737 460.5,168C 454.258,170.303 448.258,169.803 442.5,166.5C 441.668,174.479 441.168,182.479 441,190.5C 438.925,194.537 435.592,196.204 431,195.5C 427.065,196.209 424.065,194.876 422,191.5C 421.333,166.5 421.333,141.5 422,116.5C 423.397,114.93 424.897,113.596 426.5,112.5 Z M 447.5,132.5 C 455.836,132.394 459.336,136.394 458,144.5C 455.459,149.069 451.625,150.569 446.5,149C 439.711,143.159 440.044,137.659 447.5,132.5 Z"/></g>
<g><path style="opacity:1" fill="#e2357f" d="M 84.5,163.5 C 84.5,164.167 84.1667,164.5 83.5,164.5C 73.3847,164.576 63.0514,164.409 52.5,164C 49.0594,162.533 45.8928,160.7 43,158.5C 42.5001,146.505 42.3335,134.505 42.5,122.5C 45.5008,121 48.5008,119.5 51.5,118C 61.1667,117.333 70.8333,117.333 80.5,118C 84.4281,119.092 86.7614,121.592 87.5,125.5C 85.2546,123.639 82.5879,122.639 79.5,122.5C 79.6615,124.824 80.8282,126.491 83,127.5C 83.8877,134.692 83.3877,141.692 81.5,148.5C 81.8333,150.167 82.1667,151.833 82.5,153.5C 83.3081,153.192 83.9747,152.692 84.5,152C 83.8841,150.6 83.5507,149.1 83.5,147.5C 84.8042,141.22 85.8042,134.886 86.5,128.5C 87.8059,134.054 87.8059,139.554 86.5,145C 88.5234,148.183 89.0234,151.683 88,155.5C 87.467,158.505 86.3004,161.172 84.5,163.5 Z"/></g>
<g><path style="opacity:1" fill="#e03a7f" d="M 164.5,120.5 C 166.83,122.542 167.996,125.208 168,128.5C 168.667,136.833 168.667,145.167 168,153.5C 167.941,156.822 166.774,159.656 164.5,162C 158.01,166.007 150.844,167.507 143,166.5C 136.289,166.883 129.789,166.049 123.5,164C 122.29,162.961 121.29,161.794 120.5,160.5C 117.709,147.708 117.875,135.041 121,122.5C 122.167,121.333 123.333,120.167 124.5,119C 135.085,117.538 145.585,117.038 156,117.5C 158.69,118.929 161.523,119.929 164.5,120.5 Z"/></g>
<g><path style="opacity:1" fill="#e23680" d="M 244.5,157.5 C 244.249,159.17 243.582,160.67 242.5,162C 240.044,163.711 237.377,165.044 234.5,166C 225.167,166.667 215.833,166.667 206.5,166C 197.258,162.687 193.925,156.187 196.5,146.5C 197.268,145.737 197.768,144.737 198,143.5C 198.333,136.5 198.667,129.5 199,122.5C 200.167,121.333 201.333,120.167 202.5,119C 211.811,117.94 221.144,117.106 230.5,116.5C 233.056,117.524 235.723,118.358 238.5,119C 238.043,119.414 237.709,119.914 237.5,120.5C 240.785,120.698 242.452,122.365 242.5,125.5C 241.022,125.238 239.689,125.571 238.5,126.5C 239.325,127.386 240.325,127.719 241.5,127.5C 241.334,132.844 241.501,138.177 242,143.5C 243.286,138.008 243.953,132.341 244,126.5C 244.5,136.828 244.666,147.161 244.5,157.5 Z"/></g>
<g><path style="opacity:1" fill="#de377d" d="M 609.5,112.5 C 613.605,112.234 617.605,112.734 621.5,114C 622.701,114.903 623.535,116.069 624,117.5C 631.739,111.244 639.739,110.911 648,116.5C 649.29,122.272 648.123,127.439 644.5,132C 640.453,133.941 636.453,133.774 632.5,131.5C 629.459,131.879 626.959,133.212 625,135.5C 624.667,145.5 624.333,155.5 624,165.5C 622.028,169.646 618.695,171.646 614,171.5C 608.701,171.855 605.367,169.521 604,164.5C 603.333,149.5 603.333,134.5 604,119.5C 604.233,115.78 606.066,113.447 609.5,112.5 Z"/></g>
<g><path style="opacity:1" fill="#e0367e" d="M 825.5,122.5 C 826.722,125.926 828.222,129.259 830,132.5C 830.5,143.828 830.667,155.162 830.5,166.5C 823.532,169.968 817.532,168.968 812.5,163.5C 811.67,154.676 811.17,145.676 811,136.5C 808.695,134.07 805.862,133.07 802.5,133.5C 797.999,131.769 795.166,133.436 794,138.5C 793.758,148.533 793.258,158.533 792.5,168.5C 792.082,169.222 791.416,169.722 790.5,170C 786.167,170.667 781.833,170.667 777.5,170C 776.299,169.097 775.465,167.931 775,166.5C 774.181,149.456 774.348,132.456 775.5,115.5C 779.733,112.638 784.4,111.805 789.5,113C 792.102,113.935 793.602,115.768 794,118.5C 802.372,111.017 811.205,110.517 820.5,117C 822.766,118.426 824.432,120.26 825.5,122.5 Z"/></g>
<g><path style="opacity:1" fill="#de377d" d="M 503.5,89.5 C 515.923,87.3104 526.756,90.3104 536,98.5C 537.803,106.538 534.637,111.871 526.5,114.5C 521.953,111.81 517.12,109.81 512,108.5C 507.917,108.282 505.417,110.116 504.5,114C 505.899,117.064 508.232,119.064 511.5,120C 519.5,121.25 527.167,123.583 534.5,127C 545.126,139.833 544.792,152.5 533.5,165C 517.097,175.517 501.597,174.351 487,161.5C 480.797,153.732 482.297,147.565 491.5,143C 493.167,142.333 494.833,142.333 496.5,143C 499.463,144.961 502.129,147.294 504.5,150C 509.341,153.949 514.341,154.282 519.5,151C 522.742,146.392 521.742,143.059 516.5,141C 508.553,139.098 500.886,136.431 493.5,133C 483.719,123.601 481.886,112.768 488,100.5C 491.962,95.0231 497.129,91.3564 503.5,89.5 Z"/></g>
<g><path style="opacity:1" fill="#d84481" d="M 84.5,163.5 C 86.3004,161.172 87.467,158.505 88,155.5C 89.0234,151.683 88.5234,148.183 86.5,145C 87.8059,139.554 87.8059,134.054 86.5,128.5C 85.8042,134.886 84.8042,141.22 83.5,147.5C 83.5507,149.1 83.8841,150.6 84.5,152C 83.9747,152.692 83.3081,153.192 82.5,153.5C 82.1667,151.833 81.8333,150.167 81.5,148.5C 83.3877,141.692 83.8877,134.692 83,127.5C 80.8282,126.491 79.6615,124.824 79.5,122.5C 82.5879,122.639 85.2546,123.639 87.5,125.5C 86.7614,121.592 84.4281,119.092 80.5,118C 70.8333,117.333 61.1667,117.333 51.5,118C 48.5008,119.5 45.5008,121 42.5,122.5C 44.1024,119.177 46.769,117.011 50.5,116C 60.1667,115.333 69.8333,115.333 79.5,116C 83.8429,117.01 87.0096,119.51 89,123.5C 91,135.167 91,146.833 89,158.5C 88.0041,160.66 86.5041,162.327 84.5,163.5 Z"/></g>
<g><path style="opacity:1" fill="#302968" d="M 399.5,112.5 C 404.715,111.702 409.215,113.036 413,116.5C 413.333,117.833 413.667,119.167 414,120.5C 414.667,134.833 414.667,149.167 414,163.5C 413.934,166.276 412.768,168.442 410.5,170C 406.167,170.667 401.833,170.667 397.5,170C 395.741,168.992 394.574,167.492 394,165.5C 393.333,149.833 393.333,134.167 394,118.5C 394.683,115.321 396.516,113.321 399.5,112.5 Z"/></g>
<g><path style="opacity:1" fill="#df367d" d="M 549.5,154.5 C 548.403,147.866 547.903,141.199 548,134.5C 550.239,128.361 553.739,123.027 558.5,118.5C 563.385,114.037 569.219,112.037 576,112.5C 584.168,112.221 591.168,114.888 597,120.5C 598.805,123.122 598.805,125.789 597,128.5C 594.474,134.075 590.307,136.575 584.5,136C 572.699,129.814 567.199,133.314 568,146.5C 571.05,150.13 574.883,151.297 579.5,150C 586.051,145.279 591.551,146.446 596,153.5C 599.202,158.282 598.368,162.448 593.5,166C 577.344,174.969 563.178,172.469 551,158.5C 550.209,157.255 549.709,155.922 549.5,154.5 Z"/></g>
<g><path style="opacity:0.055" fill="#d05083" d="M 164.5,120.5 C 161.523,119.929 158.69,118.929 156,117.5C 145.585,117.038 135.085,117.538 124.5,119C 123.333,120.167 122.167,121.333 121,122.5C 117.875,135.041 117.709,147.708 120.5,160.5C 119.207,159.158 118.374,157.491 118,155.5C 117.333,145.833 117.333,136.167 118,126.5C 119.5,121 123,117.5 128.5,116C 138.167,115.333 147.833,115.333 157.5,116C 160.547,116.516 162.88,118.016 164.5,120.5 Z"/></g>
<g><path style="opacity:0.925" fill="#c34678" d="M 558.5,118.5 C 553.739,123.027 550.239,128.361 548,134.5C 547.903,141.199 548.403,147.866 549.5,154.5C 548.207,153.158 547.374,151.491 547,149.5C 545.121,140.067 546.788,131.4 552,123.5C 553.777,121.21 555.944,119.543 558.5,118.5 Z"/></g>
<g><path style="opacity:0.992" fill="#2f285c" d="M 319.5,90.5 C 318.737,91.2679 317.737,91.7679 316.5,92C 318.833,92.3333 321.167,92.6667 323.5,93C 322.033,94.0975 321.199,95.5975 321,97.5C 320.51,96.2068 320.343,94.8734 320.5,93.5C 318.801,93.3398 317.134,93.5065 315.5,94C 312.068,96.367 311.735,99.0337 314.5,102C 313.542,103.147 313.875,104.147 315.5,105C 324.091,106.244 332.758,106.911 341.5,107C 342,107.5 342.5,108 343,108.5C 342.205,127.836 342.371,147.169 343.5,166.5C 347.795,167.661 352.129,167.828 356.5,167C 357.126,166.25 357.626,165.416 358,164.5C 357.843,145.14 358.676,126.14 360.5,107.5C 360.667,127.169 360.5,146.836 360,166.5C 357.847,169.92 354.681,171.253 350.5,170.5C 346.319,171.253 343.153,169.92 341,166.5C 340.5,146.836 340.333,127.169 340.5,107.5C 331.724,107.941 323.058,107.441 314.5,106C 310.949,101.585 310.616,96.9181 313.5,92C 315.345,90.872 317.345,90.372 319.5,90.5 Z"/></g>
<g><path style="opacity:1" fill="#ca4379" d="M 825.5,122.5 C 829.222,125.943 831.389,130.277 832,135.5C 832.667,145.833 832.667,156.167 832,166.5C 831.5,168.333 830.333,169.5 828.5,170C 823.442,171.01 818.609,170.51 814,168.5C 812.991,166.975 812.491,165.308 812.5,163.5C 817.532,168.968 823.532,169.968 830.5,166.5C 830.667,155.162 830.5,143.828 830,132.5C 828.222,129.259 826.722,125.926 825.5,122.5 Z"/></g>
<g><path style="opacity:0.431" fill="#bc507a" d="M 802.5,133.5 C 798.399,133.43 795.899,135.43 795,139.5C 794.667,148.5 794.333,157.5 794,166.5C 793.722,167.416 793.222,168.082 792.5,168.5C 793.258,158.533 793.758,148.533 794,138.5C 795.166,133.436 797.999,131.769 802.5,133.5 Z"/></g>
<g><path style="opacity:1" fill="#ca4c87" d="M 42.5,122.5 C 42.3335,134.505 42.5001,146.505 43,158.5C 45.8928,160.7 49.0594,162.533 52.5,164C 63.0514,164.409 73.3847,164.576 83.5,164.5C 82.0783,164.709 80.745,165.209 79.5,166C 69.8333,166.667 60.1667,166.667 50.5,166C 46.1734,164.427 43.0068,161.593 41,157.5C 40.3333,146.5 40.3333,135.5 41,124.5C 41.2784,123.584 41.7784,122.918 42.5,122.5 Z"/></g>
<g><path style="opacity:0.078" fill="#cb4f80" d="M 205.5,193.5 C 215.839,193.334 226.172,193.5 236.5,194C 240.344,195.347 243.011,197.847 244.5,201.5C 243.185,200.524 241.852,199.524 240.5,198.5C 239.614,199.325 239.281,200.325 239.5,201.5C 238.325,201.719 237.325,201.386 236.5,200.5C 237.853,199.476 238.52,198.143 238.5,196.5C 227.464,194.966 216.464,193.966 205.5,193.5 Z"/></g>
<g><path style="opacity:0.998" fill="#e1357e" d="M 80.5,193.5 C 84.5788,194.851 87.2455,197.518 88.5,201.5C 88.8322,212.853 88.4988,224.186 87.5,235.5C 83.5571,241.032 78.2238,243.698 71.5,243.5C 63.097,243.87 54.7637,243.37 46.5,242C 45.2899,240.961 44.2899,239.794 43.5,238.5C 42.3917,225.866 42.2251,213.2 43,200.5C 45.0305,198.263 47.5305,196.763 50.5,196C 60.8835,196.146 70.8835,195.313 80.5,193.5 Z"/></g>
<g><path style="opacity:0.998" fill="#e0387f" d="M 126.5,193.5 C 137.172,193.333 147.839,193.5 158.5,194C 163.428,195.927 166.594,199.427 168,204.5C 168.667,213.5 168.667,222.5 168,231.5C 167.113,237.805 163.613,241.639 157.5,243C 146.441,243.906 135.441,243.573 124.5,242C 122.333,240.5 120.5,238.667 119,236.5C 117.405,225.907 117.072,215.24 118,204.5C 119.553,199.788 122.386,196.121 126.5,193.5 Z"/></g>
<g><path style="opacity:0.999" fill="#e0367e" d="M 205.5,193.5 C 216.464,193.966 227.464,194.966 238.5,196.5C 238.52,198.143 237.853,199.476 236.5,200.5C 237.325,201.386 238.325,201.719 239.5,201.5C 239.281,200.325 239.614,199.325 240.5,198.5C 241.852,199.524 243.185,200.524 244.5,201.5C 245.659,212.659 245.826,223.992 245,235.5C 243.542,237.96 241.709,240.127 239.5,242C 228.559,243.573 217.559,243.906 206.5,243C 204.347,242.901 202.681,242.067 201.5,240.5C 200.986,238.132 199.82,236.132 198,234.5C 197.828,227.654 197.328,220.987 196.5,214.5C 193.973,205.143 196.973,198.143 205.5,193.5 Z"/></g>
<g><path style="opacity:0.62" fill="#cc517e" d="M 88.5,201.5 C 89.29,202.609 89.79,203.942 90,205.5C 90.8989,215.893 90.5656,226.227 89,236.5C 84.7494,242.424 78.9161,244.758 71.5,243.5C 78.2238,243.698 83.5571,241.032 87.5,235.5C 88.4988,224.186 88.8322,212.853 88.5,201.5 Z"/></g>
<g><path style="opacity:1" fill="#cc477d" d="M 80.5,193.5 C 70.8835,195.313 60.8835,196.146 50.5,196C 47.5305,196.763 45.0305,198.263 43,200.5C 42.2251,213.2 42.3917,225.866 43.5,238.5C 42.0337,237.653 41.2004,236.32 41,234.5C 40.0648,222.762 40.3982,211.095 42,199.5C 43.9384,196.894 46.4384,195.061 49.5,194C 59.828,193.5 70.1613,193.334 80.5,193.5 Z"/></g>
<g><path style="opacity:0.647" fill="#c0537e" d="M 196.5,214.5 C 197.328,220.987 197.828,227.654 198,234.5C 199.82,236.132 200.986,238.132 201.5,240.5C 199.547,239.374 198.047,237.708 197,235.5C 196.5,228.508 196.334,221.508 196.5,214.5 Z"/></g>
</svg>
